<svg id="visual" viewBox="0 0 1440 800" width="1440" height="800" xmlns="http://www.w3.org/2000/svg" xmlns:xlink="http://www.w3.org/1999/xlink" version="1.1"><rect x="0" y="0" width="1440" height="800" fill="#ffffff"></rect><defs><linearGradient id="grad1_0" x1="44.4%" y1="100%" x2="100%" y2="0%"><stop offset="13.999999999999998%" stop-color="#ffffff" stop-opacity="1"></stop><stop offset="86%" stop-color="#ffffff" stop-opacity="1"></stop></linearGradient></defs><defs><linearGradient id="grad2_0" x1="0%" y1="100%" x2="55.6%" y2="0%"><stop offset="13.999999999999998%" stop-color="#ffffff" stop-opacity="1"></stop><stop offset="86%" stop-color="#ffffff" stop-opacity="1"></stop></linearGradient></defs><g transform="translate(1440, 800)"><path d="M-480 0C-427.3 -60.3 -374.6 -120.6 -341.2 -197C-307.8 -273.4 -293.7 -365.8 -240 -415.7C-186.3 -465.5 -93.2 -472.8 0 -480L0 0Z" fill="#FFAAF7"></path></g><g transform="translate(0, 0)"><path d="M480 0C470.8 89.8 461.7 179.6 415.7 240C369.7 300.4 286.9 331.2 211.5 366.3C136.1 401.4 68 440.7 0 480L0 0Z" fill="#FFAAF7"></path></g></svg>